<?xml version="1.0" encoding="utf-8"?>
<?xml-stylesheet type="text/xsl" href="rss1.xsl"?>
<rss version="2.0" xmlns:atom="http://www.w3.org/2005/Atom" xmlns:content="http://purl.org/rss/1.0/modules/content/" xmlns:dc="http://purl.org/dc/elements/1.1/" xmlns:media="http://search.yahoo.com/mrss/">
<channel>
 <title>Getty</title>
 <link>http://www.gettyimg.com/</link>
 <atom:link href="http://www.gettyimg.com/" rel="self" type="application/rss+xml" />

 
                <item>
                <title><![CDATA[【HD Live Performances】FEED - Coldplay - Music of the Spheres, Buenos Aires, Argentina, 2022 [caladan]]]></title>
                <link><![CDATA[https://sharemania.us/threads/coldplay-music-of-the-spheres-buenos-aires-argentina-2022-caladan.224650/]]></link>
                <description><![CDATA[<article>
<blockquote class="messageText SelectQuoteContainer ugc baseHtml">
This video is a "streamlined" 4.5GB version of <a href="https://sharemania.us/threads/coldplay-music-of-the-spheres-live-from-buenos-aires-28-10-2022-feed-hdtv-h264-1080i-dd5-1-ilya2129.207949/" class="internalLink">this almost 20GB recording</a>. The conversion took many hours.<br>
<br>
My edits of the source video: deinterlaced, cropped the black bars, cropped the non-concert advertising intro, converted to mp4, converted the audio from AC3 5.1 to AAC stereo and increased the volume without clipping, added a text file with the setlist.<br>
<br>
<img src="https://i.postimg.cc/QC6750ht/Coldplay-Music-of-the-Spheres-Buenos-Aires-Argentina-2022-mkv.jpg" class="bbCodeImage LbImage" alt="[​IMG]" data-url="https://i.postimg.cc/QC6750ht/Coldplay-Music-of-the-Spheres-Buenos-Aires-Argentina-2022-mkv.jpg" style=""><br>
<br>
Mediainfo:<br>
<div class="ToggleTriggerAnchor bbCodeSpoilerContainer">
<button type="button" class="button bbCodeSpoilerButton ToggleTrigger Tooltip JsOnly" data-target="> .SpoilerTarget"><span>Spoiler</span></button>
<div class="SpoilerTarget bbCodeSpoilerText">General<br>
Unique ID : 228996878597807725708869411652247493867 (0xAC4731CF1861E861407E1534127C1CEB)<br>
Complete name : Coldplay - Music of the Spheres, Buenos Aires, Argentina, 2022.mkv<br>
Format : Matroska<br>
Format version : Version 4<br>
File size : 4.60 GiB<br>
Duration : 2 h 7 min<br>
Overall bit rate : 5 160 kb/s<br>
Writing application : Lavf60.5.100<br>
Writing library : Lavf60.5.100<br>
ErrorDetectionType : Per level 1<br>
<br>
Video<br>
ID : 1<br>
Format : AVC<br>
Format/Info : Advanced Video Codec<br>
Format profile : High@L5<br>
Format settings : CABAC / 8 Ref Frames<br>
Format settings, CABAC : Yes<br>
Format settings, Reference frames : 8 frames<br>
Codec ID : V_MPEG4/ISO/AVC<br>
Duration : 2 h 4 min<br>
Bit rate : 5 062 kb/s<br>
Width : 1 920 pixels<br>
Height : 796 pixels<br>
Display aspect ratio : 2.40:1<br>
Frame rate mode : Constant<br>
Frame rate : 25.000 FPS<br>
Color space : YUV<br>
Chroma subsampling : 4:2:0<br>
Bit depth : 8 bits<br>
Scan type : Progressive<br>
Bits/(Pixel*Frame) : 0.132<br>
Stream size : 4.39 GiB (96%)<br>
Default : Yes<br>
Forced : No<br>
<br>
Audio<br>
ID : 2<br>
Format : AAC LC<br>
Format/Info : Advanced Audio Codec Low Complexity<br>
Codec ID : A_AAC-2<br>
Duration : 2 h 7 min<br>
Bit rate : 227 kb/s<br>
Channel(s) : 2 channels<br>
Channel layout : L R<br>
Sampling rate : 48.0 kHz<br>
Frame rate : 46.875 FPS (1024 SPF)<br>
Compression mode : Lossy<br>
Delay relative to video : 3 ms<br>
Stream size : 207 MiB (4%)<br>
Language : English<br>
Default : Yes<br>
Forced : No</div>
</div><br>
<div class="bbCodeBlock bbCodeVfcHH HiddenContent">
<div class="attribution type">Hidden Content:</div>
<blockquote>You must reply before you can see the hidden data contained here.</blockquote>
</div>
<div class="messageTextEndMarker">&nbsp;</div>
</blockquote>
</article>]]></description>
                <author><![CDATA[caladan]]></author>
                </item>

                </channel></rss>